<svg width="576" height="512" viewBox="0 0 576 512" fill="none" xmlns="http://www.w3.org/2000/svg">
<path d="M105.143 0C64.8 0 32 32.8 32 73.1429V438.857C32 479.2 64.8 512 105.143 512H470.857C511.2 512 544 479.2 544 438.857V73.1429C544 32.8 511.2 0 470.857 0H105.143ZM251.429 256H306.286C326.514 256 342.857 239.657 342.857 219.429C342.857 199.2 326.514 182.857 306.286 182.857H251.429V256ZM306.286 329.143H251.429V365.714C251.429 385.943 235.086 402.286 214.857 402.286C194.629 402.286 178.286 385.943 178.286 365.714V292.571V155.429C178.286 130.171 198.743 109.714 224 109.714H306.286C366.857 109.714 416 158.857 416 219.429C416 280 366.857 329.143 306.286 329.143Z" fill="#8B0000"/>
</svg>
